<svg width="300" height="80" viewBox="0 0 300 80" fill="none" xmlns="http://www.w3.org/2000/svg">
  <!-- Círculo de fundo da bola -->
  <circle cx="40" cy="40" r="35" fill="url(#ballGradient)"/>
  
  <!-- Linhas da bola de vôlei -->
  <path d="M 20 18 Q 30 25, 40 18 T 60 18" stroke="#fff" stroke-width="2.5" fill="none" opacity="0.9"/>
  <path d="M 15 35 Q 27 38, 40 35 T 65 35" stroke="#fff" stroke-width="2.5" fill="none" opacity="0.9"/>
  <path d="M 20 52 Q 30 48, 40 52 T 60 52" stroke="#fff" stroke-width="2.5" fill="none" opacity="0.9"/>
  <path d="M 23 23 L 30 30 M 50 30 L 57 23 M 23 57 L 30 50 M 50 50 L 57 57" stroke="#fff" stroke-width="2.5" stroke-linecap="round" opacity="0.9"/>
  
  <defs>
    <linearGradient id="ballGradient" x1="0%" y1="0%" x2="100%" y2="100%">
      <stop offset="0%" style="stop-color:#0066ff;stop-opacity:1" />
      <stop offset="100%" style="stop-color:#0052cc;stop-opacity:1" />
    </linearGradient>
    <linearGradient id="volleyGradient" x1="0%" y1="0%" x2="100%" y2="0%">
      <stop offset="0%" style="stop-color:#0066ff;stop-opacity:1" />
      <stop offset="100%" style="stop-color:#0052cc;stop-opacity:1" />
    </linearGradient>
    <linearGradient id="proGradient" x1="0%" y1="0%" x2="100%" y2="0%">
      <stop offset="0%" style="stop-color:#FFC72C;stop-opacity:1" />
      <stop offset="100%" style="stop-color:#ff6b35;stop-opacity:1" />
    </linearGradient>
  </defs>
  
  <!-- Texto -->
  <text x="90" y="50" font-family="Arial, sans-serif" font-size="36" font-weight="900" fill="url(#volleyGradient)">Volley</text>
  <text x="205" y="50" font-family="Arial, sans-serif" font-size="36" font-weight="900" fill="url(#proGradient)">Pro</text>
</svg>
